<?xml version="1.0" encoding="UTF-8" standalone="no"?>
<!DOCTYPE svg PUBLIC "-//W3C//DTD SVG 1.1//EN"
 "http://www.w3.org/Graphics/SVG/1.1/DTD/svg11.dtd">
<!-- Generated by graphviz version 8.1.0 (20230707.0739)
 -->
<!-- Pages: 1 -->
<svg width="820pt" height="548pt"
 viewBox="0.00 0.00 820.49 548.00" xmlns="http://www.w3.org/2000/svg" xmlns:xlink="http://www.w3.org/1999/xlink">
<g id="graph0" class="graph" transform="scale(1 1) rotate(0) translate(4 544)">
<polygon fill="white" stroke="none" points="-4,4 -4,-544 816.49,-544 816.49,4 -4,4"/>
<!-- [root] aws_autoscaling_group.example (orphan) -->
<g id="node1" class="node">
<title>[root] aws_autoscaling_group.example (orphan)</title>
<polygon fill="none" stroke="black" points="193.75,-108 0,-108 0,-72 193.75,-72 193.75,-108"/>
<text text-anchor="middle" x="96.88" y="-84.95" font-family="Times,serif" font-size="14.00">aws_autoscaling_group.example</text>
</g>
<!-- [root] provider[&quot;registry.terraform.io/hashicorp/aws&quot;] -->
<g id="node13" class="node">
<title>[root] provider[&quot;registry.terraform.io/hashicorp/aws&quot;]</title>
<polygon fill="none" stroke="black" points="304.88,-36 40.44,-18 304.87,0 569.31,-18 304.88,-36"/>
<text text-anchor="middle" x="304.88" y="-12.95" font-family="Times,serif" font-size="14.00">provider[&quot;registry.terraform.io/hashicorp/aws&quot;]</text>
</g>
<!-- [root] aws_autoscaling_group.example (orphan)&#45;&gt;[root] provider[&quot;registry.terraform.io/hashicorp/aws&quot;] -->
<g id="edge1" class="edge">
<title>[root] aws_autoscaling_group.example (orphan)&#45;&gt;[root] provider[&quot;registry.terraform.io/hashicorp/aws&quot;]</title>
<path fill="none" stroke="black" d="M148.83,-71.52C180.07,-61 219.76,-47.65 251.29,-37.03"/>
<polygon fill="black" stroke="black" points="252.28,-40.06 260.64,-33.55 250.05,-33.42 252.28,-40.06"/>
</g>
<!-- [root] aws_autoscaling_group.web&#45;a (expand) -->
<g id="node2" class="node">
<title>[root] aws_autoscaling_group.web&#45;a (expand)</title>
<polygon fill="none" stroke="black" points="269,-396 88.75,-396 88.75,-360 269,-360 269,-396"/>
<text text-anchor="middle" x="178.88" y="-372.95" font-family="Times,serif" font-size="14.00">aws_autoscaling_group.web&#45;a</text>
</g>
<!-- [root] aws_launch_configuration.example (expand) -->
<g id="node4" class="node">
<title>[root] aws_launch_configuration.example (expand)</title>
<polygon fill="none" stroke="black" points="291.62,-324 82.12,-324 82.12,-288 291.62,-288 291.62,-324"/>
<text text-anchor="middle" x="186.88" y="-300.95" font-family="Times,serif" font-size="14.00">aws_launch_configuration.example</text>
</g>
<!-- [root] aws_autoscaling_group.web&#45;a (expand)&#45;&gt;[root] aws_launch_configuration.example (expand) -->
<g id="edge2" class="edge">
<title>[root] aws_autoscaling_group.web&#45;a (expand)&#45;&gt;[root] aws_launch_configuration.example (expand)</title>
<path fill="none" stroke="black" d="M180.85,-359.7C181.71,-352.24 182.72,-343.32 183.68,-334.97"/>
<polygon fill="black" stroke="black" points="187.26,-335.44 184.92,-325.1 180.31,-334.64 187.26,-335.44"/>
</g>
<!-- [root] aws_lb_target_group.asg (expand) -->
<g id="node8" class="node">
<title>[root] aws_lb_target_group.asg (expand)</title>
<polygon fill="none" stroke="black" points="461.75,-324 310,-324 310,-288 461.75,-288 461.75,-324"/>
<text text-anchor="middle" x="385.88" y="-300.95" font-family="Times,serif" font-size="14.00">aws_lb_target_group.asg</text>
</g>
<!-- [root] aws_autoscaling_group.web&#45;a (expand)&#45;&gt;[root] aws_lb_target_group.asg (expand) -->
<g id="edge3" class="edge">
<title>[root] aws_autoscaling_group.web&#45;a (expand)&#45;&gt;[root] aws_lb_target_group.asg (expand)</title>
<path fill="none" stroke="black" d="M230.58,-359.52C258.96,-349.92 294.35,-337.95 324.18,-327.86"/>
<polygon fill="black" stroke="black" points="325.12,-330.9 333.47,-324.38 322.88,-324.27 325.12,-330.9"/>
</g>
<!-- [root] aws_autoscaling_group.web&#45;c (expand) -->
<g id="node3" class="node">
<title>[root] aws_autoscaling_group.web&#45;c (expand)</title>
<polygon fill="none" stroke="black" points="467,-396 286.75,-396 286.75,-360 467,-360 467,-396"/>
<text text-anchor="middle" x="376.88" y="-372.95" font-family="Times,serif" font-size="14.00">aws_autoscaling_group.web&#45;c</text>
</g>
<!-- [root] aws_autoscaling_group.web&#45;c (expand)&#45;&gt;[root] aws_launch_configuration.example (expand) -->
<g id="edge4" class="edge">
<title>[root] aws_autoscaling_group.web&#45;c (expand)&#45;&gt;[root] aws_launch_configuration.example (expand)</title>
<path fill="none" stroke="black" d="M329.42,-359.52C303.59,-350 271.45,-338.16 244.22,-328.13"/>
<polygon fill="black" stroke="black" points="245.65,-324.55 235.05,-324.38 243.23,-331.12 245.65,-324.55"/>
</g>
<!-- [root] aws_autoscaling_group.web&#45;c (expand)&#45;&gt;[root] aws_lb_target_group.asg (expand) -->
<g id="edge5" class="edge">
<title>[root] aws_autoscaling_group.web&#45;c (expand)&#45;&gt;[root] aws_lb_target_group.asg (expand)</title>
<path fill="none" stroke="black" d="M379.1,-359.7C380.06,-352.24 381.21,-343.32 382.28,-334.97"/>
<polygon fill="black" stroke="black" points="385.87,-335.47 383.68,-325.1 378.93,-334.58 385.87,-335.47"/>
</g>
<!-- [root] aws_security_group.instance (expand) -->
<g id="node10" class="node">
<title>[root] aws_security_group.instance (expand)</title>
<polygon fill="none" stroke="black" points="314.25,-252 141.5,-252 141.5,-216 314.25,-216 314.25,-252"/>
<text text-anchor="middle" x="227.88" y="-228.95" font-family="Times,serif" font-size="14.00">aws_security_group.instance</text>
</g>
<!-- [root] aws_launch_configuration.example (expand)&#45;&gt;[root] aws_security_group.instance (expand) -->
<g id="edge6" class="edge">
<title>[root] aws_launch_configuration.example (expand)&#45;&gt;[root] aws_security_group.instance (expand)</title>
<path fill="none" stroke="black" d="M197.01,-287.7C201.63,-279.81 207.2,-270.3 212.33,-261.55"/>
<polygon fill="black" stroke="black" points="215.82,-263.5 217.86,-253.1 209.78,-259.96 215.82,-263.5"/>
</g>
<!-- [root] aws_lb.example (expand) -->
<g id="node5" class="node">
<title>[root] aws_lb.example (expand)</title>
<polygon fill="none" stroke="black" points="622.12,-252 517.62,-252 517.62,-216 622.12,-216 622.12,-252"/>
<text text-anchor="middle" x="569.88" y="-228.95" font-family="Times,serif" font-size="14.00">aws_lb.example</text>
</g>
<!-- [root] aws_security_group.alb (expand) -->
<g id="node9" class="node">
<title>[root] aws_security_group.alb (expand)</title>
<polygon fill="none" stroke="black" points="636.38,-108 491.38,-108 491.38,-72 636.38,-72 636.38,-108"/>
<text text-anchor="middle" x="563.88" y="-84.95" font-family="Times,serif" font-size="14.00">aws_security_group.alb</text>
</g>
<!-- [root] aws_lb.example (expand)&#45;&gt;[root] aws_security_group.alb (expand) -->
<g id="edge7" class="edge">
<title>[root] aws_lb.example (expand)&#45;&gt;[root] aws_security_group.alb (expand)</title>
<path fill="none" stroke="black" d="M570.86,-215.58C571.69,-197.63 572.51,-168.82 570.88,-144 570.34,-135.82 569.34,-126.97 568.26,-118.89"/>
<polygon fill="black" stroke="black" points="571.6,-118.53 566.72,-109.13 564.67,-119.52 571.6,-118.53"/>
</g>
<!-- [root] data.aws_subnets.default (expand) -->
<g id="node11" class="node">
<title>[root] data.aws_subnets.default (expand)</title>
<polygon fill="none" stroke="black" points="561.75,-180 410,-180 410,-144 561.75,-144 561.75,-180"/>
<text text-anchor="middle" x="485.88" y="-156.95" font-family="Times,serif" font-size="14.00">data.aws_subnets.default</text>
</g>
<!-- [root] aws_lb.example (expand)&#45;&gt;[root] data.aws_subnets.default (expand) -->
<g id="edge8" class="edge">
<title>[root] aws_lb.example (expand)&#45;&gt;[root] data.aws_subnets.default (expand)</title>
<path fill="none" stroke="black" d="M549.11,-215.7C538.81,-207.11 526.2,-196.61 514.96,-187.24"/>
<polygon fill="black" stroke="black" points="517.61,-184.06 507.69,-180.35 513.13,-189.44 517.61,-184.06"/>
</g>
<!-- [root] aws_lb_listener.http (expand) -->
<g id="node6" class="node">
<title>[root] aws_lb_listener.http (expand)</title>
<polygon fill="none" stroke="black" points="628.25,-324 503.5,-324 503.5,-288 628.25,-288 628.25,-324"/>
<text text-anchor="middle" x="565.88" y="-300.95" font-family="Times,serif" font-size="14.00">aws_lb_listener.http</text>
</g>
<!-- [root] aws_lb_listener.http (expand)&#45;&gt;[root] aws_lb.example (expand) -->
<g id="edge9" class="edge">
<title>[root] aws_lb_listener.http (expand)&#45;&gt;[root] aws_lb.example (expand)</title>
<path fill="none" stroke="black" d="M566.86,-287.7C567.29,-280.24 567.8,-271.32 568.28,-262.97"/>
<polygon fill="black" stroke="black" points="571.82,-263.29 568.9,-253.1 564.83,-262.89 571.82,-263.29"/>
</g>
<!-- [root] aws_lb_listener_rule.asg (expand) -->
<g id="node7" class="node">
<title>[root] aws_lb_listener_rule.asg (expand)</title>
<polygon fill="none" stroke="black" points="635,-396 484.75,-396 484.75,-360 635,-360 635,-396"/>
<text text-anchor="middle" x="559.88" y="-372.95" font-family="Times,serif" font-size="14.00">aws_lb_listener_rule.asg</text>
</g>
<!-- [root] aws_lb_listener_rule.asg (expand)&#45;&gt;[root] aws_lb_listener.http (expand) -->
<g id="edge10" class="edge">
<title>[root] aws_lb_listener_rule.asg (expand)&#45;&gt;[root] aws_lb_listener.http (expand)</title>
<path fill="none" stroke="black" d="M561.36,-359.7C562,-352.24 562.76,-343.32 563.48,-334.97"/>
<polygon fill="black" stroke="black" points="567.04,-335.37 564.41,-325.1 560.07,-334.77 567.04,-335.37"/>
</g>
<!-- [root] aws_lb_listener_rule.asg (expand)&#45;&gt;[root] aws_lb_target_group.asg (expand) -->
<g id="edge11" class="edge">
<title>[root] aws_lb_listener_rule.asg (expand)&#45;&gt;[root] aws_lb_target_group.asg (expand)</title>
<path fill="none" stroke="black" d="M516.42,-359.52C492.97,-350.08 463.84,-338.37 439.05,-328.39"/>
<polygon fill="black" stroke="black" points="440.66,-324.87 430.08,-324.38 438.05,-331.36 440.66,-324.87"/>
</g>
<!-- [root] data.aws_vpc.default (expand) -->
<g id="node12" class="node">
<title>[root] data.aws_vpc.default (expand)</title>
<polygon fill="none" stroke="black" points="447.25,-108 316.5,-108 316.5,-72 447.25,-72 447.25,-108"/>
<text text-anchor="middle" x="381.88" y="-84.95" font-family="Times,serif" font-size="14.00">data.aws_vpc.default</text>
</g>
<!-- [root] aws_lb_target_group.asg (expand)&#45;&gt;[root] data.aws_vpc.default (expand) -->
<g id="edge12" class="edge">
<title>[root] aws_lb_target_group.asg (expand)&#45;&gt;[root] data.aws_vpc.default (expand)</title>
<path fill="none" stroke="black" d="M385.55,-287.85C384.87,-250.99 383.24,-163.92 382.4,-118.96"/>
<polygon fill="black" stroke="black" points="385.88,-119.17 382.2,-109.23 378.88,-119.3 385.88,-119.17"/>
</g>
<!-- [root] var.server_port -->
<g id="node14" class="node">
<title>[root] var.server_port</title>
<polygon fill="none" stroke="black" points="347.75,-180 256,-180 256,-144 353.75,-144 353.75,-174 347.75,-180"/>
<polyline fill="none" stroke="black" points="347.75,-180 347.75,-174"/>
<polyline fill="none" stroke="black" points="353.75,-174 347.75,-174"/>
<text text-anchor="middle" x="304.88" y="-156.95" font-family="Times,serif" font-size="14.00">var.server_port</text>
</g>
<!-- [root] aws_lb_target_group.asg (expand)&#45;&gt;[root] var.server_port -->
<g id="edge13" class="edge">
<title>[root] aws_lb_target_group.asg (expand)&#45;&gt;[root] var.server_port</title>
<path fill="none" stroke="black" d="M375.94,-287.59C361.96,-263.08 336.36,-218.19 320,-189.52"/>
<polygon fill="black" stroke="black" points="322.63,-188.06 314.64,-181.11 316.55,-191.53 322.63,-188.06"/>
</g>
<!-- [root] aws_security_group.alb (expand)&#45;&gt;[root] provider[&quot;registry.terraform.io/hashicorp/aws&quot;] -->
<g id="edge14" class="edge">
<title>[root] aws_security_group.alb (expand)&#45;&gt;[root] provider[&quot;registry.terraform.io/hashicorp/aws&quot;]</title>
<path fill="none" stroke="black" d="M499.19,-71.52C458.75,-60.59 406.95,-46.59 367.01,-35.79"/>
<polygon fill="black" stroke="black" points="368.17,-32.21 357.6,-32.98 366.34,-38.97 368.17,-32.21"/>
</g>
<!-- [root] aws_security_group.instance (expand)&#45;&gt;[root] provider[&quot;registry.terraform.io/hashicorp/aws&quot;] -->
<g id="edge15" class="edge">
<title>[root] aws_security_group.instance (expand)&#45;&gt;[root] provider[&quot;registry.terraform.io/hashicorp/aws&quot;]</title>
<path fill="none" stroke="black" d="M230.4,-215.63C233.31,-197.47 238.77,-168.28 246.88,-144 258.73,-108.5 277.76,-69.71 290.76,-44.9"/>
<polygon fill="black" stroke="black" points="294.16,-46.97 295.76,-36.49 287.98,-43.68 294.16,-46.97"/>
</g>
<!-- [root] aws_security_group.instance (expand)&#45;&gt;[root] var.server_port -->
<g id="edge16" class="edge">
<title>[root] aws_security_group.instance (expand)&#45;&gt;[root] var.server_port</title>
<path fill="none" stroke="black" d="M246.91,-215.7C256.26,-207.2 267.68,-196.81 277.91,-187.51"/>
<polygon fill="black" stroke="black" points="279.75,-190.66 284.79,-181.35 275.04,-185.48 279.75,-190.66"/>
</g>
<!-- [root] data.aws_subnets.default (expand)&#45;&gt;[root] data.aws_vpc.default (expand) -->
<g id="edge17" class="edge">
<title>[root] data.aws_subnets.default (expand)&#45;&gt;[root] data.aws_vpc.default (expand)</title>
<path fill="none" stroke="black" d="M459.9,-143.52C446.77,-134.68 430.66,-123.84 416.5,-114.3"/>
<polygon fill="black" stroke="black" points="418.77,-110.94 408.52,-108.26 414.86,-116.75 418.77,-110.94"/>
</g>
<!-- [root] data.aws_vpc.default (expand)&#45;&gt;[root] provider[&quot;registry.terraform.io/hashicorp/aws&quot;] -->
<g id="edge18" class="edge">
<title>[root] data.aws_vpc.default (expand)&#45;&gt;[root] provider[&quot;registry.terraform.io/hashicorp/aws&quot;]</title>
<path fill="none" stroke="black" d="M362.84,-71.7C353.14,-62.88 341.21,-52.03 330.69,-42.47"/>
<polygon fill="black" stroke="black" points="333.39,-40.28 323.63,-36.14 328.68,-45.46 333.39,-40.28"/>
</g>
<!-- [root] output.alb_dns_name (expand) -->
<g id="node15" class="node">
<title>[root] output.alb_dns_name (expand)</title>
<ellipse fill="none" stroke="black" cx="662.88" cy="-450" rx="149.62" ry="18"/>
<text text-anchor="middle" x="662.88" y="-444.95" font-family="Times,serif" font-size="14.00">[root] output.alb_dns_name (expand)</text>
</g>
<!-- [root] output.alb_dns_name (expand)&#45;&gt;[root] aws_lb.example (expand) -->
<g id="edge19" class="edge">
<title>[root] output.alb_dns_name (expand)&#45;&gt;[root] aws_lb.example (expand)</title>
<path fill="none" stroke="black" d="M664.01,-431.66C665.24,-400.61 664.11,-334.39 636.88,-288 630.19,-276.61 620.04,-266.73 609.66,-258.69"/>
<polygon fill="black" stroke="black" points="612.1,-255.41 601.95,-252.37 607.99,-261.08 612.1,-255.41"/>
</g>
<!-- [root] provider[&quot;registry.terraform.io/hashicorp/aws&quot;] (close) -->
<g id="node16" class="node">
<title>[root] provider[&quot;registry.terraform.io/hashicorp/aws&quot;] (close)</title>
<ellipse fill="none" stroke="black" cx="256.88" cy="-450" rx="238.16" ry="18"/>
<text text-anchor="middle" x="256.88" y="-444.95" font-family="Times,serif" font-size="14.00">[root] provider[&quot;registry.terraform.io/hashicorp/aws&quot;] (close)</text>
</g>
<!-- [root] provider[&quot;registry.terraform.io/hashicorp/aws&quot;] (close)&#45;&gt;[root] aws_autoscaling_group.example (orphan) -->
<g id="edge20" class="edge">
<title>[root] provider[&quot;registry.terraform.io/hashicorp/aws&quot;] (close)&#45;&gt;[root] aws_autoscaling_group.example (orphan)</title>
<path fill="none" stroke="black" d="M145.19,-433.66C121.13,-425.76 97.62,-413.87 79.88,-396 50.83,-366.76 53.88,-348.21 53.88,-307 53.88,-307 53.88,-307 53.88,-233 53.88,-191.66 70.78,-146.34 83.39,-118.28"/>
<polygon fill="black" stroke="black" points="86.93,-119.96 87.97,-109.42 80.58,-117.01 86.93,-119.96"/>
</g>
<!-- [root] provider[&quot;registry.terraform.io/hashicorp/aws&quot;] (close)&#45;&gt;[root] aws_autoscaling_group.web&#45;a (expand) -->
<g id="edge21" class="edge">
<title>[root] provider[&quot;registry.terraform.io/hashicorp/aws&quot;] (close)&#45;&gt;[root] aws_autoscaling_group.web&#45;a (expand)</title>
<path fill="none" stroke="black" d="M237.59,-431.7C228.13,-423.2 216.55,-412.81 206.19,-403.51"/>
<polygon fill="black" stroke="black" points="208.98,-401.42 199.2,-397.35 204.31,-406.63 208.98,-401.42"/>
</g>
<!-- [root] provider[&quot;registry.terraform.io/hashicorp/aws&quot;] (close)&#45;&gt;[root] aws_autoscaling_group.web&#45;c (expand) -->
<g id="edge22" class="edge">
<title>[root] provider[&quot;registry.terraform.io/hashicorp/aws&quot;] (close)&#45;&gt;[root] aws_autoscaling_group.web&#45;c (expand)</title>
<path fill="none" stroke="black" d="M286.54,-431.7C301.97,-422.69 321.04,-411.57 337.67,-401.87"/>
<polygon fill="black" stroke="black" points="339.26,-404.41 346.14,-396.35 335.74,-398.36 339.26,-404.41"/>
</g>
<!-- [root] provider[&quot;registry.terraform.io/hashicorp/aws&quot;] (close)&#45;&gt;[root] aws_lb_listener_rule.asg (expand) -->
<g id="edge23" class="edge">
<title>[root] provider[&quot;registry.terraform.io/hashicorp/aws&quot;] (close)&#45;&gt;[root] aws_lb_listener_rule.asg (expand)</title>
<path fill="none" stroke="black" d="M328.68,-432.41C372.19,-422.36 427.96,-409.47 473.83,-398.88"/>
<polygon fill="black" stroke="black" points="474.4,-402.11 483.36,-396.45 472.82,-395.29 474.4,-402.11"/>
</g>
<!-- [root] root -->
<g id="node17" class="node">
<title>[root] root</title>
<ellipse fill="none" stroke="black" cx="459.88" cy="-522" rx="49.3" ry="18"/>
<text text-anchor="middle" x="459.88" y="-516.95" font-family="Times,serif" font-size="14.00">[root] root</text>
</g>
<!-- [root] root&#45;&gt;[root] output.alb_dns_name (expand) -->
<g id="edge24" class="edge">
<title>[root] root&#45;&gt;[root] output.alb_dns_name (expand)</title>
<path fill="none" stroke="black" d="M494.77,-508.97C525,-498.54 569.35,-483.25 604.9,-470.99"/>
<polygon fill="black" stroke="black" points="605.84,-474.03 614.15,-467.46 603.55,-467.41 605.84,-474.03"/>
</g>
<!-- [root] root&#45;&gt;[root] provider[&quot;registry.terraform.io/hashicorp/aws&quot;] (close) -->
<g id="edge25" class="edge">
<title>[root] root&#45;&gt;[root] provider[&quot;registry.terraform.io/hashicorp/aws&quot;] (close)</title>
<path fill="none" stroke="black" d="M424.98,-508.97C395.16,-498.68 351.61,-483.67 316.31,-471.5"/>
<polygon fill="black" stroke="black" points="317.71,-467.93 307.12,-467.98 315.43,-474.55 317.71,-467.93"/>
</g>
</g>
</svg>
